static_00
version=1
nRows=13
nColumns=46
inDegrees=yes
endheader
time	ground_force3_vx	ground_force3_vy	ground_force3_vz	ground_force3_px	ground_force3_py	ground_force3_pz	ground_torque3_x	ground_torque3_y	ground_torque3_z	ground_force5_vx	ground_force5_vy	ground_force5_vz	ground_force5_px	ground_force5_py	ground_force5_pz	ground_torque5_x	ground_torque5_y	ground_torque5_z	ground_force4_vx	ground_force4_vy	ground_force4_vz	ground_force4_px	ground_force4_py	ground_force4_pz	ground_torque4_x	ground_torque4_y	ground_torque4_z	ground_force1_vx	ground_force1_vy	ground_force1_vz	ground_force1_px	ground_force1_py	ground_force1_pz	ground_torque1_x	ground_torque1_y	ground_torque1_z	ground_force2_vx	ground_force2_vy	ground_force2_vz	ground_force2_px	ground_force2_py	ground_force2_pz	ground_torque2_x	ground_torque2_y	ground_torque2_z
0.395000	0.313644	482.648621	-57.451302	0.194239	0.000000	-0.393548	0.000005	1.024786	0.000003	-0.000000	-0.000000	0.000000	0.200000	0.000000	-1.500000	0.000000	0.000000	0.000000	-1.754358	445.595184	55.756622	0.207405	0.000000	-0.804903	0.000024	-0.025472	0.000009	-1.847566	7.483433	-0.469898	0.185850	0.000000	0.959436	-0.000000	0.043589	0.000000	-3.492747	4.900297	-0.818803	0.134929	0.000000	0.204635	-0.000000	0.035709	0.000000	
0.395500	0.152771	482.334991	-57.209610	0.194516	0.000000	-0.393721	0.000008	1.092382	0.000004	-0.000000	-0.000000	0.000000	0.200000	0.000000	-1.500000	0.000000	0.000000	0.000000	-1.996694	445.113831	55.755093	0.207428	0.000000	-0.804869	0.000020	-0.091898	0.000000	-2.171792	7.168999	-0.710699	0.193729	0.000000	0.959629	-0.000000	-0.028872	0.000000	-2.850352	6.171068	-0.819312	0.146019	0.000000	0.228500	-0.000000	-0.109867	0.000000	
0.396000	-0.008102	482.021362	-56.967918	0.194793	0.000000	-0.393894	0.000003	1.159919	0.000004	-0.000000	-0.000000	0.000000	0.200000	0.000000	-1.500000	0.000000	0.000000	0.000000	-2.239030	444.632507	55.753563	0.207452	0.000000	-0.804836	0.000023	-0.158345	0.000002	-2.496018	6.854564	-0.951501	0.202331	0.000000	0.959840	-0.000000	-0.097020	0.000000	-2.207957	7.441839	-0.819821	0.153321	0.000000	0.244214	-0.000000	-0.209880	0.000000	
0.396500	-0.168975	481.862427	-57.209949	0.194592	0.000000	-0.393883	0.000008	1.152547	0.000000	-0.000000	-0.000000	0.000000	0.200000	0.000000	-1.500000	0.000000	0.000000	0.000000	-2.401617	444.473389	55.754585	0.207467	0.000000	-0.804153	0.000020	-0.170198	-0.000001	-2.091058	7.641328	-1.032617	0.202187	0.000000	0.967069	-0.000001	-0.050561	0.000000	-2.610353	6.015858	-0.738620	0.137824	0.000000	0.210040	-0.000000	-0.175247	0.000000	
0.397000	-0.329848	481.703491	-57.451981	0.194391	0.000000	-0.393872	0.000001	1.145068	0.000010	-0.000000	-0.000000	0.000000	0.200000	0.000000	-1.500000	0.000000	0.000000	0.000000	-2.564204	444.314270	55.755608	0.207483	0.000000	-0.803469	-0.000008	-0.182276	0.000004	-1.686098	8.428091	-1.113733	0.202069	0.000000	0.972949	-0.000000	0.004036	0.000000	-3.012749	4.589876	-0.657420	0.112697	0.000000	0.154633	-0.000000	-0.052951	0.000000	
0.397500	0.072335	480.914825	-56.887352	0.194532	0.000000	-0.394041	0.000015	1.144336	0.000008	-0.000000	-0.000000	0.000000	0.200000	0.000000	-1.500000	0.000000	0.000000	0.000000	-2.725247	443.352234	55.755608	0.207560	0.000000	-0.803254	0.000026	-0.170530	0.000000	-1.846707	7.011201	-0.790966	0.188729	0.000000	0.990238	-0.000000	0.010706	0.000000	-1.506374	2.294938	-0.328710	0.112697	0.000000	0.154633	-0.000000	-0.026475	0.000000	
0.398000	0.474517	480.126160	-56.322723	0.194673	0.000000	-0.394211	0.000014	1.143333	0.000005	-0.000000	-0.000000	0.000000	0.200000	0.000000	-1.500000	0.000000	0.000000	0.000000	-2.886290	442.390228	55.755608	0.207639	0.000000	-0.803038	0.000018	-0.158876	0.000006	-2.007317	5.594311	-0.468200	0.168632	0.000000	1.016284	-0.000000	-0.000309	0.000000	-0.000000	-0.000000	0.000000	0.200000	0.000000	0.320000	0.000000	0.000000	0.000000	
0.398500	0.233207	481.706238	-56.806961	0.194738	0.000000	-0.393811	0.000016	1.080210	0.000007	-0.000000	-0.000000	0.000000	0.200000	0.000000	-1.500000	0.000000	0.000000	0.000000	-2.885517	443.189270	55.835365	0.207837	0.000000	-0.803719	0.000013	-0.165126	0.000007	-2.007747	6.853519	-0.790117	0.184642	0.000000	1.005306	-0.000001	-0.008034	0.000000	-1.826937	2.608132	0.153914	0.060433	0.000000	0.188543	-0.000000	0.078692	0.000000	
0.399000	-0.008102	483.286346	-57.291199	0.194802	0.000000	-0.393413	0.000015	1.016931	0.000010	-0.000000	-0.000000	0.000000	0.200000	0.000000	-1.500000	0.000000	0.000000	0.000000	-2.884745	443.988312	55.915119	0.208035	0.000000	-0.804397	0.000007	-0.171374	0.000001	-2.008176	8.112728	-1.112035	0.195683	0.000000	0.997735	-0.000001	-0.017811	0.000000	-3.653875	5.216263	0.307827	0.060433	0.000000	0.188543	-0.000000	0.157384	0.000000	
0.399500	-0.249411	482.813416	-57.129730	0.194812	0.000000	-0.393557	0.000013	1.044207	0.000001	-0.000000	-0.000000	0.000000	0.200000	0.000000	-1.500000	0.000000	0.000000	0.000000	-2.643181	443.672302	56.157448	0.207812	0.000000	-0.803717	0.000004	-0.158766	-0.000001	-1.928730	7.482636	-0.790542	0.190600	0.000000	0.981875	-0.000001	-0.077748	0.000000	-3.252748	5.219828	0.145935	0.097890	0.000000	0.210099	-0.000000	-0.002856	-0.000000	
0.400000	-0.490720	482.340515	-56.968262	0.194822	0.000000	-0.393702	0.000013	1.071552	0.000004	-0.000000	-0.000000	0.000000	0.200000	0.000000	-1.500000	0.000000	0.000000	0.000000	-2.401617	443.356293	56.399780	0.207590	0.000000	-0.803037	-0.000005	-0.145707	0.000005	-1.849284	6.852545	-0.469049	0.184583	0.000000	0.963098	-0.000000	-0.131981	-0.000000	-2.851621	5.223392	-0.015957	0.135296	0.000000	0.231627	-0.000000	-0.133590	-0.000000	
0.400500	-0.651593	481.234009	-57.129219	0.194689	0.000000	-0.394136	0.000007	1.149323	0.000003	-0.000000	-0.000000	0.000000	0.200000	0.000000	-1.500000	0.000000	0.000000	0.000000	-2.564976	443.514557	56.238228	0.207688	0.000000	-0.802876	0.000009	-0.250549	0.000002	-1.605363	7.796875	-0.469473	0.183309	0.000000	0.973310	-0.000001	-0.038075	0.000000	-3.011903	4.584379	-0.578763	0.114101	0.000000	0.227801	-0.000000	-0.133970	-0.000000	
0.401000	-0.812466	480.127502	-57.290176	0.194555	0.000000	-0.394572	0.000009	1.227158	0.000010	-0.000000	-0.000000	0.000000	0.200000	0.000000	-1.500000	0.000000	0.000000	0.000000	-2.728336	443.672821	56.076675	0.207787	0.000000	-0.802716	-0.000001	-0.355408	0.000004	-1.361442	8.741206	-0.469898	0.182310	0.000000	0.981315	-0.000000	0.063946	0.000000	-3.172184	3.945365	-1.141570	0.086040	0.000000	0.222737	0.000000	-0.160887	0.000000	
